<svg xmlns="http://www.w3.org/2000/svg" xmlns:svg="http://www.w3.org/2000/svg" id="svg2991" width="300" height="50" version="1.1"><metadata id="metadata2996"/><rect id="rect3018" width="14" height="50" x="0" y="0" style="fill:#000;fill-opacity:1;stroke:none;display:inline"/><rect id="rect3026" width="14" height="31" x="23" y="19" style="fill:#000;fill-opacity:1;stroke:none;display:inline"/><rect id="rect3028" width="14" height="12" x="23" y="0" style="fill:#000;fill-opacity:1;stroke:none;display:inline"/><path id="rect3030" d="m 46.000009,1.064e-5 0,18.99998936 0,11 0,7.9687 0,12.0313 14.02306,0 9.92257,0 c 7.7535,0 14.054374,-6.9404 14.054374,-15.5 0,-8.5597 -6.300874,-15.5 -14.054374,-15.5 l -9.92257,0 0,-18.99998936 -14.02306,0 z M 60.023069,30 l 5.94729,0 c 2.20031,0 3.97528,1.8012 3.97528,4 0,2.1988 -1.77497,3.9687 -3.97528,3.9687 l -5.94729,0 0,-7.9687 z" style="fill:#000;fill-opacity:1;stroke:none;display:inline"/><path id="rect3030-3" d="M 104.02523,1.064e-5 C 96.288603,1.064e-5 90.001343,6.9403116 90.001343,15.5 c 0,0.1068 -0.001,0.2081 0,0.3125 2.1e-4,0.021 -5e-4,0.041 0,0.062 l 0,18.25 c -0.003,0.1274 0,0.2468 0,0.375 0,8.5596 6.28726,15.5 14.023887,15.5 l 9.90113,0 1.15565,0 12.83711,0 1.15565,0 9.90113,0 c 7.73674,0 14.024,-6.9404 14.024,-15.5 0,-8.5597 -6.28726,-15.5 -14.024,-15.5 l -5.62209,0 -2.24884,0 -11.11925,0 0,11 11.11925,0 2.24884,0 1.65539,0 c 2.19557,0 3.9667,1.8012 3.9667,4 0,2.1988 -1.77113,3.9687 -3.9667,3.9687 l -3.90423,0 -2.0302,0 -1.15565,0 -12.83711,0 -1.15565,0 -2.0302,0 -3.90424,0 c -2.15389,0 -3.90122,-1.7031 -3.96669,-3.8437 l 0,-18.25 0,-0.062 c 0.0976,-2.1109 1.83403,-3.7813 3.96669,-3.7813 l 3.90424,0 2.0302,0 6.05936,0 0,0.031 30.98398,0 0,-12.06248936 -23.05058,0 -7.9334,0 -6.05936,0 -9.90113,0 z" style="fill:#e74a45;fill-opacity:1;stroke:none;display:inline"/><path id="rect3030-3-4-2" d="m 159.9999,-8.936e-5 0,12.05498936 25.34216,0 8.71621,0 5.1801,0 2.0162,0 3.87732,0 c 2.11797,0 3.84248,1.6693 3.93936,3.7789 l 0,0.062 0,18.2386 c -0.065,2.1393 -1.80031,3.8413 -3.93936,3.8413 l -3.87732,0 -2.0162,0 -8.90233,0 -4.99398,0 -11.44585,0 0,-18.9569 -13.89631,0 0,18.9569 0,8.2137 0,3.8101 25.34216,0 4.99398,0 8.90233,0 9.83288,0 c 7.68341,0 13.92733,-6.936 13.92733,-15.4903 0,-0.1281 0.003,-0.2474 0,-0.3748 l 0,-18.2386 c 4.9e-4,-0.021 -2.1e-4,-0.042 0,-0.062 9.9e-4,-0.1043 0,-0.2055 0,-0.3123 0,-8.5542884 -6.24392,-15.49028939 -13.92733,-15.49028939 l -9.83288,0 -5.1801,0 0,-0.031 -34.05837,0 z" style="fill:#e74a45;fill-opacity:1;stroke:none;display:inline"/><path id="path4169" d="m 222.99599,1.064e-5 19.44141,0 L 261.4999,19.0625 280.5624,1.064e-5 l 19.4375,0 -25,24.99998936 25,25 -19.4375,0 L 261.4999,30.9375 242.4374,50 222.9999,50 247.99599,25 z" style="fill:#e74a45;stroke:none;display:inline"/></svg>